<?xml version="1.0" encoding="utf-8"?>
<!-- Generator: Adobe Illustrator 21.0.0, SVG Export Plug-In . SVG Version: 6.00 Build 0)  -->
<svg version="1.1" id="Layer_1" xmlns="http://www.w3.org/2000/svg" xmlns:xlink="http://www.w3.org/1999/xlink" x="0px" y="0px"
	 viewBox="0 0 8 20" style="enable-background:new 0 0 8 20;" xml:space="preserve">
<style type="text/css">
	.st0{fill:#303055;}
</style>
<path class="st0" d="M7.3,6.4L0.6,7.5c-0.1,0-0.3-0.1-0.3-0.3V7.2c0-0.1,0.1-0.3,0.3-0.3l6.8-1.2c0.1,0,0.3,0.1,0.3,0.3V6
	C7.6,6.2,7.4,6.3,7.3,6.4z"/>
<path class="st0" d="M1.6,9.8C0.7,9.8,0,10.5,0,11.4s0.7,1.6,1.6,1.6s1.6-0.7,1.6-1.6S2.4,9.8,1.6,9.8z M1.6,11.8
	c-0.2,0-0.4-0.2-0.4-0.4S1.4,11,1.6,11s0.4,0.2,0.4,0.4S1.8,11.8,1.6,11.8z"/>
<path class="st0" d="M6.4,9.8c-0.9,0-1.6,0.7-1.6,1.6s0.7,1.6,1.6,1.6S8,12.3,8,11.4S7.3,9.8,6.4,9.8z M6.4,11.8
	c-0.2,0-0.4-0.2-0.4-0.4S6.3,11,6.4,11s0.4,0.2,0.4,0.4S6.7,11.8,6.4,11.8z"/>
<g>
	<polygon class="st0" points="5.6,5.9 5.6,5.9 5.5,5.4 	"/>
	<polygon class="st0" points="1.9,6 2,6.6 2,6.6 	"/>
	<path class="st0" d="M5.5,5.3L4.8,0.6C4.7,0.2,4.3-0.1,3.9,0L1.7,0.4C1.3,0.5,1.1,0.9,1.1,1.2l0.8,4.7L5.5,5.3z"/>
</g>
<g>
	<path class="st0" d="M3.5,5.7L3.5,5.7C3.5,5.7,3.5,5.7,3.5,5.7z"/>
	<path class="st0" d="M6.4,9.4V8.2c0-0.9-0.4-1.7-1.1-2.1L2,6.6c-0.3,0.5-0.5,1-0.5,1.6v1.2h0.1c1.1,0,2,0.9,2,2.1s-0.9,2.1-2,2.1
		H1.5v3.9C1.5,18.8,2.6,20,4,20s2.5-1.2,2.5-2.6v-3.9c-1.1,0-2-0.9-2-2.1C4.5,10.3,5.4,9.4,6.4,9.4z"/>
</g>
</svg>
